<?xml version="1.0" encoding="UTF-8"?>
<svg xmlns="http://www.w3.org/2000/svg" xmlns:xlink="http://www.w3.org/1999/xlink" width="32px" height="32px" viewBox="0 0 32 32" version="1.1">
<g id="surface1">
<path style=" stroke:none;fill-rule:nonzero;fill:rgb(98.823529%,39.607843%,45.882353%);fill-opacity:1;" d="M 1.011719 16.238281 C 0.113281 14.730469 0.648438 12.800781 2.199219 11.929688 L 22.105469 0.753906 C 23.65625 -0.117188 25.640625 0.402344 26.539062 1.910156 C 27.433594 3.417969 26.902344 5.347656 25.351562 6.21875 L 5.445312 17.394531 C 3.890625 18.265625 1.90625 17.746094 1.011719 16.238281 Z M 1.011719 16.238281 "/>
<path style=" stroke:none;fill-rule:nonzero;fill:rgb(100%,85.098039%,16.078431%);fill-opacity:1;" d="M 10.4375 20.054688 C 9.542969 18.546875 10.074219 16.617188 11.625 15.746094 L 26.730469 7.265625 C 28.28125 6.394531 30.265625 6.914062 31.164062 8.421875 C 32.058594 9.929688 31.527344 11.859375 29.976562 12.730469 L 14.871094 21.210938 C 13.316406 22.082031 11.332031 21.5625 10.4375 20.054688 Z M 10.4375 20.054688 "/>
<path style=" stroke:none;fill-rule:nonzero;fill:rgb(41.960784%,83.137255%,94.901961%);fill-opacity:1;" d="M 9.125 29.898438 C 8.226562 28.390625 8.757812 26.460938 10.3125 25.589844 L 18.507812 20.988281 C 20.058594 20.117188 22.046875 20.636719 22.941406 22.144531 C 23.835938 23.652344 23.304688 25.582031 21.753906 26.453125 L 13.554688 31.054688 C 12.003906 31.925781 10.019531 31.410156 9.125 29.898438 Z M 9.125 29.898438 "/>
</g>
</svg>
