<?xml version="1.0" encoding="UTF-8"?>
<svg width="50px" height="50px" viewBox="0 0 50 50" version="1.1" xmlns="http://www.w3.org/2000/svg" xmlns:xlink="http://www.w3.org/1999/xlink">
    <!-- Generator: Sketch 64 (93537) - https://sketch.com -->
    <title>Path</title>
    <desc>Created with Sketch.</desc>
    <g id="Page-1" stroke="none" stroke-width="1" fill="none" fill-rule="evenodd">
        <path d="M47.4997024,22.4999313 L27.5000687,22.4999313 L27.5000687,2.49983975 C27.5000687,1.12014432 26.3799244,0 24.9997711,0 C23.6200756,0 22.4999313,1.12014432 22.4999313,2.49983975 L22.4999313,22.4999313 L2.49983975,22.4999313 C1.12014432,22.4999313 0,23.6200756 0,24.9997711 C0,26.3799244 1.12014432,27.5000687 2.49983975,27.5000687 L22.4999313,27.5000687 L22.4999313,47.4997024 C22.4999313,48.8798557 23.6200756,50 24.9997711,50 C26.3799244,50 27.5000687,48.8798557 27.5000687,47.4997024 L27.5000687,27.5000687 L47.4997024,27.5000687 C48.8798557,27.5000687 50,26.3799244 50,24.9997711 C50,23.6200756 48.8798557,22.4999313 47.4997024,22.4999313 Z" id="Path" fill="#000000" fill-rule="nonzero"></path>
    </g>
</svg>