<svg width="25" height="24" viewBox="0 0 25 24" fill="none" xmlns="http://www.w3.org/2000/svg">
<g clip-path="url(#clip0_90_210)">
<g clip-path="url(#clip1_90_210)">
<path d="M12.667 0C6.0398 0 0.666992 5.37281 0.666992 12C0.666992 18.6272 6.0398 24 12.667 24C19.2942 24 24.667 18.6272 24.667 12C24.667 5.37281 19.2942 0 12.667 0Z" fill="black"/>
<path d="M13.98 10.9138L19.117 4.94238H17.8997L13.4392 10.1273L9.87661 4.94238H5.76758L11.1549 12.7829L5.76758 19.0448H6.98497L11.6954 13.5694L15.4577 19.0448H19.5668L13.9796 10.9138H13.98ZM7.4236 5.85882H9.29343L17.9003 18.17H16.0304L7.4236 5.85882Z" fill="white"/>
</g>
</g>
<defs>
<clipPath id="clip0_90_210">
<rect width="24" height="24" fill="white" transform="translate(0.666992)"/>
</clipPath>
<clipPath id="clip1_90_210">
<rect width="24" height="24" fill="white" transform="translate(0.666992)"/>
</clipPath>
</defs>
</svg>
