<svg width="25" height="24" viewBox="0 0 25 24" fill="none" xmlns="http://www.w3.org/2000/svg">
<g clip-path="url(#clip0_90_211)">
<g clip-path="url(#clip1_90_211)">
<path d="M12.667 23.999C19.2944 23.999 24.667 18.6264 24.667 11.999C24.667 5.37161 19.2944 -0.000976562 12.667 -0.000976562C6.03958 -0.000976562 0.666992 5.37161 0.666992 11.999C0.666992 18.6264 6.03958 23.999 12.667 23.999Z" fill="#007AB9"/>
<path d="M19.8368 12.9651V17.9124H16.9684V13.2967C16.9684 12.1377 16.5543 11.3462 15.5158 11.3462C14.7232 11.3462 14.2524 11.8791 14.0445 12.395C13.969 12.5794 13.9495 12.8355 13.9495 13.0941V17.9122H11.0809C11.0809 17.9122 11.1194 10.0946 11.0809 9.28539H13.9497V10.5079C13.9439 10.5175 13.9358 10.5269 13.9307 10.5361H13.9497V10.5079C14.3309 9.92135 15.0107 9.08282 16.5348 9.08282C18.422 9.08282 19.8368 10.3158 19.8368 12.9651ZM8.08019 5.12695C7.09898 5.12695 6.45703 5.77104 6.45703 6.61727C6.45703 7.44554 7.08037 8.10824 8.04254 8.10824H8.06115C9.06162 8.10824 9.68367 7.44554 9.68367 6.61727C9.66463 5.77104 9.06162 5.12695 8.08019 5.12695ZM6.62752 17.9124H9.495V9.28539H6.62752V17.9124Z" fill="#F1F2F2"/>
</g>
</g>
<defs>
<clipPath id="clip0_90_211">
<rect width="24" height="24" fill="white" transform="translate(0.666992)"/>
</clipPath>
<clipPath id="clip1_90_211">
<rect width="24" height="24" fill="white" transform="translate(0.666992)"/>
</clipPath>
</defs>
</svg>
