<svg width="25" height="24" viewBox="0 0 25 24" fill="none" xmlns="http://www.w3.org/2000/svg">
<g clip-path="url(#clip0_90_212)">
<g clip-path="url(#clip1_90_212)">
<path d="M12.667 24C19.2944 24 24.667 18.6274 24.667 12C24.667 5.37258 19.2944 0 12.667 0C6.03958 0 0.666992 5.37258 0.666992 12C0.666992 18.6274 6.03958 24 12.667 24Z" fill="#FF0000"/>
<path d="M16.5942 7.48535H8.74051C8.42666 7.48535 8.11588 7.5472 7.82593 7.66735C7.53599 7.78751 7.27257 7.96361 7.05071 8.18562C6.82886 8.40762 6.65292 8.67116 6.53296 8.96118C6.41299 9.2512 6.35136 9.56202 6.35156 9.87588V14.1232C6.35136 14.4371 6.41299 14.7479 6.53296 15.0379C6.65292 15.328 6.82886 15.5915 7.05071 15.8135C7.27257 16.0355 7.53599 16.2116 7.82593 16.3318C8.11588 16.4519 8.42666 16.5138 8.74051 16.5138H16.5942C16.908 16.5138 17.2188 16.4519 17.5088 16.3318C17.7987 16.2116 18.0621 16.0355 18.284 15.8135C18.5058 15.5915 18.6818 15.328 18.8017 15.0379C18.9217 14.7479 18.9833 14.4371 18.9831 14.1232V9.87588C18.9833 9.56202 18.9217 9.2512 18.8017 8.96118C18.6818 8.67116 18.5058 8.40762 18.284 8.18562C18.0621 7.96361 17.7987 7.78751 17.5088 7.66735C17.2188 7.5472 16.908 7.48535 16.5942 7.48535ZM11.0031 13.9354V10.0638L14.3316 11.9996L11.0031 13.9354Z" fill="white"/>
</g>
</g>
<defs>
<clipPath id="clip0_90_212">
<rect width="24" height="24" fill="white" transform="translate(0.666992)"/>
</clipPath>
<clipPath id="clip1_90_212">
<rect width="24" height="24" fill="white" transform="translate(0.666992)"/>
</clipPath>
</defs>
</svg>
