<svg width="25" height="24" viewBox="0 0 25 24" fill="none" xmlns="http://www.w3.org/2000/svg">
<g clip-path="url(#clip0_90_208)">
<path d="M24.667 12.0733C24.667 18.0996 20.2786 23.0945 14.542 24V15.5633H17.3381L17.8701 12.0733H14.542V9.80864C14.542 8.85362 15.007 7.92313 16.4976 7.92313H18.0107V4.95195C18.0107 4.95195 16.6373 4.71615 15.3243 4.71615C12.5836 4.71615 10.792 6.38755 10.792 9.41343V12.0733H7.74512V15.5633H10.792V24C5.05543 23.0945 0.666992 18.0996 0.666992 12.0733C0.666992 5.40565 6.0398 0 12.667 0C19.2942 0 24.667 5.40565 24.667 12.0733Z" fill="#1877F2"/>
<path d="M17.242 15.4886L17.7676 12.0279H14.4799V9.78217C14.4799 8.83539 14.9391 7.91251 16.4117 7.91251H17.9065V4.96625C17.9065 4.96625 16.5499 4.73242 15.2529 4.73242C12.5452 4.73242 10.7755 6.38981 10.7755 9.39032V12.0279H7.76562V15.4886H10.7755V23.8545C11.379 23.9502 11.9976 24 12.6277 24C13.2578 24 13.8763 23.9502 14.4799 23.8545V15.4886H17.242Z" fill="white"/>
</g>
<defs>
<clipPath id="clip0_90_208">
<rect width="24" height="24.0003" fill="white" transform="translate(0.666992)"/>
</clipPath>
</defs>
</svg>
