<svg width="196" height="36" viewBox="0 0 196 36" fill="none" xmlns="http://www.w3.org/2000/svg">
<g clip-path="url(#clip0_90_207)">
<path d="M0.476108 17.895C-0.504002 16.1974 0.0776378 14.0267 1.77524 13.0465L23.5479 0.476112C25.2455 -0.504008 27.4162 0.0776421 28.3963 1.77524C29.3764 3.47284 28.7948 5.64355 27.0972 6.62367L5.32449 19.1941C3.62689 20.1742 1.45622 19.5926 0.476108 17.895Z" fill="#FC6575"/>
<path d="M10.7866 22.1884C9.80653 20.4908 10.3882 18.3201 12.0858 17.34L28.6073 7.80135C30.3049 6.82115 32.4757 7.40285 33.4558 9.10045C34.4359 10.7981 33.8542 12.9688 32.1566 13.9489L15.6351 23.4876C13.9375 24.4678 11.7667 23.886 10.7866 22.1884Z" fill="#FFD929"/>
<path d="M9.34913 33.2643C8.36903 31.5667 8.95073 29.396 10.6483 28.4159L19.6135 23.2398C21.3111 22.2597 23.4818 22.8413 24.4619 24.5389C25.442 26.2365 24.8604 28.4072 23.1628 29.3874L14.1976 34.5634C12.5 35.5435 10.3292 34.9619 9.34913 33.2643Z" fill="#6BD4F2"/>
<path d="M56.0261 26.978C52.2821 26.978 49.0501 25.698 46.6181 23.426L48.9541 20.578C50.9701 22.402 53.3061 23.554 56.1861 23.554C58.8741 23.554 60.2821 22.21 60.2821 20.642C60.2821 18.818 58.7141 18.21 55.1941 17.378C50.6501 16.322 47.5141 15.01 47.5141 10.882C47.5141 7.04198 50.7781 4.25797 55.3861 4.25797C58.8741 4.25797 61.5301 5.44197 63.7061 7.32998L61.5301 10.242C59.6421 8.60998 57.4341 7.68198 55.2581 7.68198C53.0181 7.68198 51.5461 8.99398 51.5461 10.53C51.5461 12.322 53.1461 12.962 56.6341 13.762C61.2101 14.786 64.2821 16.258 64.2821 20.258C64.2821 24.194 61.3061 26.978 56.0261 26.978ZM75.8244 27.01C70.9284 27.01 66.9284 23.106 66.9284 18.338C66.9284 13.57 70.9284 9.69798 75.8244 9.69798C80.6884 9.69798 84.6564 13.57 84.6564 18.338C84.6564 23.106 80.6884 27.01 75.8244 27.01ZM75.8244 23.682C78.5764 23.682 80.8484 21.282 80.8484 18.338C80.8484 15.394 78.5764 13.026 75.8244 13.026C73.0404 13.026 70.7684 15.394 70.7684 18.338C70.7684 21.282 73.0404 23.682 75.8244 23.682ZM91.9509 26.626L86.3509 10.082H90.2549L93.7109 21.378L97.3909 10.082H100.655L104.335 21.378L107.791 10.082H111.695L106.095 26.626H102.543L99.0229 15.298L95.5029 26.626H91.9509ZM116.598 7.58598C115.35 7.58598 114.358 6.52998 114.358 5.34598C114.358 4.16198 115.35 3.13798 116.598 3.13798C117.814 3.13798 118.806 4.16198 118.806 5.34598C118.806 6.52998 117.814 7.58598 116.598 7.58598ZM114.646 26.626V10.082H118.55V26.626H114.646ZM130.051 9.69798C134.435 9.69798 137.123 12.482 137.123 16.674V26.626H133.315V24.674C132.099 26.178 130.051 27.01 128.131 27.01C124.611 27.01 121.987 24.93 121.987 21.73C121.987 18.466 124.963 16.226 128.707 16.226C130.211 16.226 131.811 16.546 133.315 17.09V16.674C133.315 14.754 132.291 12.898 129.283 12.898C127.715 12.898 126.211 13.442 124.803 14.146L123.459 11.426C125.795 10.274 127.971 9.69798 130.051 9.69798ZM128.995 24.162C130.883 24.162 132.899 23.202 133.315 21.442V19.554C132.099 19.17 130.723 18.946 129.283 18.946C127.331 18.946 125.731 20.034 125.731 21.602C125.731 23.17 127.139 24.162 128.995 24.162ZM150.67 9.69798C154.318 9.69798 156.846 12.322 156.846 16.098V26.626H153.038V16.866C153.038 14.594 151.63 13.026 149.582 13.026C147.342 13.026 145.55 14.594 145.55 16.61V26.626H141.646V10.082H145.55V12.322C146.542 10.754 148.462 9.69798 150.67 9.69798ZM168.949 27.01C164.149 27.01 160.085 23.042 160.085 18.338C160.085 13.634 164.149 9.69798 168.981 9.69798C171.509 9.69798 173.685 10.754 175.253 12.386L172.629 14.69C171.733 13.698 170.357 13.026 168.949 13.026C166.229 13.026 163.957 15.458 163.957 18.338C163.957 21.25 166.229 23.682 168.949 23.682C170.389 23.682 171.797 23.01 172.725 21.954L175.349 24.226C173.749 25.922 171.541 27.01 168.949 27.01ZM185.818 23.874C187.482 23.874 189.37 23.17 190.426 22.146L192.666 24.45C191.226 25.986 188.346 27.01 185.946 27.01C181.178 27.01 177.242 23.394 177.242 18.306C177.242 13.314 180.986 9.69798 185.722 9.69798C190.842 9.69798 193.85 13.474 193.85 19.49H181.018C181.434 22.082 183.258 23.874 185.818 23.874ZM185.754 12.834C183.386 12.834 181.562 14.434 181.05 16.898H190.074C189.722 14.562 188.25 12.834 185.754 12.834Z" fill="white"/>
</g>
<defs>
<clipPath id="clip0_90_207">
<rect width="195.37" height="35.0391" fill="white"/>
</clipPath>
</defs>
</svg>
