<svg width="25" height="24" viewBox="0 0 25 24" fill="none" xmlns="http://www.w3.org/2000/svg">
<g clip-path="url(#clip0_90_209)">
<g clip-path="url(#clip1_90_209)">
<path d="M12.667 25.4531C19.2944 25.4531 24.667 20.0805 24.667 13.4531C24.667 6.82571 19.2944 1.45312 12.667 1.45312C6.03958 1.45312 0.666992 6.82571 0.666992 13.4531C0.666992 20.0805 6.03958 25.4531 12.667 25.4531Z" fill="url(#paint0_linear_90_209)"/>
<path d="M15.2165 6.78516H10.1232C7.85119 6.78516 6.00586 8.63049 6.00586 10.9025V15.9958C6.00586 18.2678 7.85119 20.1132 10.1232 20.1132H15.2165C17.4885 20.1132 19.3339 18.2678 19.3339 15.9958V10.9025C19.3339 8.63049 17.4885 6.78516 15.2165 6.78516ZM17.8459 16.0012C17.8459 17.4518 16.6672 18.6358 15.2112 18.6358H10.1179C8.66719 18.6358 7.48319 17.4572 7.48319 16.0012V10.9078C7.48319 9.45716 8.66186 8.27316 10.1179 8.27316H15.2112C16.6619 8.27316 17.8459 9.45182 17.8459 10.9078V16.0012Z" fill="white"/>
<path d="M12.6678 10.0439C10.7904 10.0439 9.25977 11.5746 9.25977 13.4519C9.25977 15.3293 10.7904 16.8599 12.6678 16.8599C14.5451 16.8599 16.0758 15.3293 16.0758 13.4519C16.0758 11.5746 14.5451 10.0439 12.6678 10.0439ZM12.6678 15.5213C11.5264 15.5213 10.5984 14.5933 10.5984 13.4519C10.5984 12.3106 11.5264 11.3826 12.6678 11.3826C13.8091 11.3826 14.7371 12.3106 14.7371 13.4519C14.7371 14.5933 13.8091 15.5213 12.6678 15.5213Z" fill="white"/>
<path d="M16.3349 10.4169C16.6488 10.366 16.8621 10.0702 16.8112 9.75626C16.7603 9.44228 16.4645 9.22901 16.1505 9.27991C15.8366 9.33081 15.6233 9.6266 15.6742 9.94058C15.7251 10.2546 16.0209 10.4678 16.3349 10.4169Z" fill="white"/>
</g>
</g>
<defs>
<linearGradient id="paint0_linear_90_209" x1="3.52987" y1="22.5902" x2="20.5832" y2="5.53691" gradientUnits="userSpaceOnUse">
<stop stop-color="#FEE411"/>
<stop offset="0.0518459" stop-color="#FEDB16"/>
<stop offset="0.1381" stop-color="#FEC125"/>
<stop offset="0.2481" stop-color="#FE983D"/>
<stop offset="0.3762" stop-color="#FE5F5E"/>
<stop offset="0.5" stop-color="#FE2181"/>
<stop offset="1" stop-color="#9000DC"/>
</linearGradient>
<clipPath id="clip0_90_209">
<rect width="24" height="24" fill="white" transform="translate(0.666992)"/>
</clipPath>
<clipPath id="clip1_90_209">
<rect width="24" height="24" fill="white" transform="translate(0.666992)"/>
</clipPath>
</defs>
</svg>
