<?xml version="1.0" encoding="UTF-8"?>
<svg xmlns="http://www.w3.org/2000/svg" xmlns:xlink="http://www.w3.org/1999/xlink" width="256px" height="256px" viewBox="0 0 256 256" version="1.1">
<g id="surface1">
<path style=" stroke:none;fill-rule:nonzero;fill:rgb(98.823529%,39.607843%,45.882353%);fill-opacity:1;" d="M 8.089844 129.910156 C 0.921875 117.839844 5.175781 102.402344 17.589844 95.433594 L 176.84375 6.042969 C 189.261719 -0.925781 205.136719 3.210938 212.304688 15.28125 C 219.476562 27.355469 215.21875 42.789062 202.804688 49.761719 L 43.550781 139.148438 C 31.136719 146.117188 15.257812 141.984375 8.089844 129.910156 Z M 8.089844 129.910156 "/>
<path style=" stroke:none;fill-rule:nonzero;fill:rgb(100%,85.098039%,16.078431%);fill-opacity:1;" d="M 83.5 160.441406 C 76.332031 148.367188 80.585938 132.933594 93.003906 125.964844 L 213.84375 58.132812 C 226.261719 51.164062 242.140625 55.300781 249.308594 67.371094 C 256.476562 79.441406 252.222656 94.878906 239.804688 101.847656 L 118.964844 169.679688 C 106.546875 176.648438 90.667969 172.511719 83.5 160.441406 Z M 83.5 160.441406 "/>
<path style=" stroke:none;fill-rule:nonzero;fill:rgb(41.960784%,83.137255%,94.901961%);fill-opacity:1;" d="M 72.988281 239.203125 C 65.820312 227.128906 70.074219 211.695312 82.492188 204.722656 L 148.066406 167.917969 C 160.484375 160.945312 176.359375 165.082031 183.527344 177.152344 C 190.699219 189.226562 186.441406 204.660156 174.027344 211.632812 L 108.453125 248.441406 C 96.035156 255.410156 80.15625 251.273438 72.988281 239.203125 Z M 72.988281 239.203125 "/>
</g>
</svg>
